<svg xmlns="http://www.w3.org/2000/svg" viewBox="0 0 200 200" width="200" height="200" role="img" aria-label="Lost ninja illustration">
  <!-- Phase 7 (07-09) — branded ninja-lost illustration. -->
  <!-- Background -->
  <rect width="200" height="200" rx="24" fill="#0B1020"/>
  <!-- Stars -->
  <circle cx="35" cy="40" r="2" fill="#39E600"/>
  <circle cx="170" cy="55" r="1.5" fill="#1E8BFF"/>
  <circle cx="160" cy="160" r="2" fill="#A855F7"/>
  <circle cx="50" cy="170" r="1.5" fill="#39E600"/>
  <!-- Ninja body -->
  <ellipse cx="100" cy="125" rx="35" ry="40" fill="#F7FAF4"/>
  <!-- Head -->
  <circle cx="100" cy="80" r="32" fill="#F7FAF4"/>
  <!-- Mask band -->
  <rect x="68" y="70" width="64" height="14" fill="#0B1020"/>
  <!-- Eyes (one wide / one closed = lost expression) -->
  <circle cx="86" cy="77" r="3.5" fill="#F7FAF4"/>
  <circle cx="86" cy="77" r="1.5" fill="#0B1020"/>
  <line x1="110" y1="77" x2="118" y2="77" stroke="#F7FAF4" stroke-width="2.5" stroke-linecap="round"/>
  <!-- Eyebrow up (confused) -->
  <path d="M 80 65 L 92 62" stroke="#F7FAF4" stroke-width="2" stroke-linecap="round" fill="none"/>
  <!-- Question marks floating -->
  <text x="135" y="55" font-family="sans-serif" font-size="22" font-weight="bold" fill="#39E600">?</text>
  <text x="50" y="55" font-family="sans-serif" font-size="16" font-weight="bold" fill="#1E8BFF">?</text>
  <text x="155" y="100" font-family="sans-serif" font-size="14" font-weight="bold" fill="#A855F7">?</text>
  <!-- Arms hanging -->
  <path d="M 70 130 Q 55 145 60 165" stroke="#0B1020" stroke-width="3" fill="none" stroke-linecap="round"/>
  <path d="M 130 130 Q 145 145 140 165" stroke="#0B1020" stroke-width="3" fill="none" stroke-linecap="round"/>
  <!-- Belt -->
  <rect x="65" y="148" width="70" height="6" fill="#39E600"/>
</svg>
